<svg xmlns="http://www.w3.org/2000/svg" width="87" height="90" viewBox="0 0 87 90">
    <g fill="none" fill-rule="evenodd">
        <path fill="#F1F1F1" fill-rule="nonzero" d="M10.91 89.97h69.622c.288 0 .53-.243.53-.53v-.107a.537.537 0 0 0-.53-.53H10.91a.537.537 0 0 0-.53.53v.106c.015.303.242.53.53.53zM6.456 89.97h2.47c.288 0 .53-.243.53-.53v-.107a.537.537 0 0 0-.53-.53h-2.47a.537.537 0 0 0-.53.53v.106c0 .303.227.53.53.53zM82.35 89.97h3.53c.288 0 .53-.243.53-.53v-.107a.537.537 0 0 0-.53-.53h-3.53a.537.537 0 0 0-.53.53v.106c0 .303.242.53.53.53z"/>
        <path fill="#E0004D" fill-opacity=".282" fill-rule="nonzero" d="M11.168 36.015a20.345 20.345 0 0 0-4.06 2.621C.335 44.258-1.877 53.94 1.774 61.955c4.97 10.893 18.091 14.818 28.106 8.893.364-.212.713-.439 1.046-.666 4.212-2.864 9.333-3.94 14.318-2.818 8.41 1.878 17.545.575 25.47-4.44 14.575-9.227 19.863-28.409 12.03-43.788-8.94-17.53-30.636-23.651-47.318-13.788-7.697 4.546-12.91 11.667-15.227 19.622-1.38 4.757-4.561 8.878-9.03 11.045z"/>
        <path fill="#234E99" fill-rule="nonzero" d="M11.168 36.015c4.455-2.167 7.652-6.303 9.046-11.06C22.426 17.379 27.259 10.56 34.365 6v62.318a19.725 19.725 0 0 0-3.424 1.849c-.333.227-.697.454-1.045.666-6.546 3.88-14.425 3.546-20.47-.197V36.985a21.982 21.982 0 0 1 1.742-.97z" opacity=".21"/>
        <g opacity=".45">
            <path fill="#63C5D7" fill-rule="nonzero" d="M60.168 16.667h-.409V14.09a1.727 1.727 0 1 0-3.454 0v2.576h-.349l-.818 1.06h5.697l-.667-1.06z"/>
            <path stroke="#FFF" stroke-width="2.179" d="M58.032 12.348V.106"/>
        </g>
        <g fill-rule="nonzero" transform="translate(12.91 1.97)">
            <path fill="#E0004D" d="M3.682 84.803h47.954a3.55 3.55 0 0 0 3.546-3.545V8.576a3.55 3.55 0 0 0-3.546-3.546H3.682A3.55 3.55 0 0 0 .136 8.576v72.682a3.55 3.55 0 0 0 3.546 3.545z"/>
            <path fill="#FFF" d="M5.273 82.167H50.06c1.348 0 2.439-1.091 2.439-2.44v-69.62c0-1.35-1.09-2.44-2.44-2.44H5.274a2.438 2.438 0 0 0-2.44 2.44v69.62c0 1.349 1.091 2.44 2.44 2.44z"/>
            <circle cx="27.667" cy="27.121" r="11.909" fill="#4977BA"/>
            <path fill="#000042" d="M21.136 31.136c.622-1.136 1.197-1.727.819-3.197-.394-1.47-.303-1.984.197-3.151.5-1.182 1.09-1.06 1.09-2.697 0-1.379 1.364-4.182 4.44-4.182 3.076 0 4.44 2.803 4.44 4.182 0 1.621.59 1.515 1.09 2.697.5 1.182.576 1.697.197 3.151-.394 1.47.197 2.061.818 3.197.621 1.137 0 3.091 0 3.091h-13.06c-.03 0-.652-1.954-.03-3.09z"/>
            <path fill="#FFBA98" d="M29.4 31.361h-3.47v-4.848h3.47z"/>
            <path fill="#FF957E" d="M29.394 27.515s-1.5 1.803-3.47 1.424v-2.424h3.47v1z"/>
            <path fill="#E0004D" d="M20.424 34.258a3.199 3.199 0 0 1 1.864-2.667l2.742-1.273.122-.818 2.181.348.334.985.333-.985 2.182-.348.121.818 2.742 1.273a3.219 3.219 0 0 1 1.864 2.667l.167 2.181a11.833 11.833 0 0 1-7.41 2.591c-2.802 0-5.378-.97-7.408-2.59l.166-2.182z"/>
            <path fill="#002D74" d="M16.864 42.818h21.59a.592.592 0 0 0 0-1.182h-21.59a.592.592 0 0 0 0 1.182z"/>
            <g fill="#002D74">
                <path d="M34.576 47.41c0 .742.59 1.332 1.333 1.332s1.333-.59 1.333-1.333c0-.742-.59-1.333-1.333-1.333-.727 0-1.333.606-1.333 1.333zM29.076 47.41c0 .742.59 1.332 1.333 1.332s1.333-.59 1.333-1.333c0-.742-.59-1.333-1.333-1.333-.727 0-1.333.606-1.333 1.333zM23.576 47.41c0 .742.59 1.332 1.333 1.332s1.333-.59 1.333-1.333c0-.742-.59-1.333-1.333-1.333-.727 0-1.333.606-1.333 1.333zM18.076 47.41c0 .742.59 1.332 1.333 1.332s1.333-.59 1.333-1.333c0-.742-.59-1.333-1.333-1.333-.727 0-1.333.606-1.333 1.333z"/>
            </g>
            <path fill="#E0004D" d="M27.62 54.212h1v21.667h-1z"/>
            <path fill="#EC6694" d="M7.606 65.045c0 4.5 3.652 8.152 8.152 8.152 4.5 0 8.151-3.652 8.151-8.152 0-4.5-3.651-8.151-8.151-8.151a8.154 8.154 0 0 0-8.152 8.151zm1.333 0a6.819 6.819 0 1 1 6.819 6.819c-3.773-.016-6.819-3.061-6.819-6.819z"/>
            <path fill="#A8003A" d="M7.985 67.485a8.158 8.158 0 0 1-.379-2.455c0-2.833 1.455-5.318 3.636-6.788l.743 1.106a6.817 6.817 0 0 0-3.046 5.682c0 .712.106 1.41.319 2.046l-1.273.409z"/>
            <path fill="#F9CCDB" d="M9.242 67.076a6.808 6.808 0 0 0 6.5 4.772c3.106 0 5.728-2.09 6.546-4.939l1.273.364a8.13 8.13 0 0 1-7.834 5.894 8.13 8.13 0 0 1-7.772-5.712l1.287-.38z"/>
            <path fill="#E0004D" d="M16.848 56.97l-.181 1.318a6.167 6.167 0 0 0-.925-.076 6.782 6.782 0 0 0-3.757 1.136l-.727-1.106a8.14 8.14 0 0 1 5.59-1.272zM12.167 66.288h6.727c.682 0 1.242-.56 1.242-1.243 0-.681-.56-1.242-1.242-1.242h-6.727c-.682 0-1.243.56-1.243 1.242 0 .682.56 1.243 1.243 1.243zM32.334 56.849h16.758v1H32.334zM32.334 59.773h16.758v1H32.334zM32.334 62.712h16.758v1H32.334zM32.334 65.636h16.758v1H32.334zM32.334 68.56h16.758v1H32.334zM32.334 71.5h16.758v1H32.334zM32.334 74.424h16.758v1H32.334z"/>
            <g>
                <path fill="#002D74" d="M24.652 1.242l.075-.47A.795.795 0 0 1 25.5.107h4.303a.78.78 0 0 1 .773.667l.076.47a2.28 2.28 0 0 0 2.257 1.909h2.621c1.046 0 1.849.924 1.697 1.97l-.485 3.348a1.745 1.745 0 0 1-1.727 1.5H20.258a1.745 1.745 0 0 1-1.728-1.5l-.485-3.349a1.723 1.723 0 0 1 1.697-1.97h2.622c1.151 0 2.106-.803 2.288-1.909z"/>
                <path fill="#041939" d="M24.652 1.242l.075-.47A.795.795 0 0 1 25.5.107h4.303a.78.78 0 0 1 .773.667l.076.47a2.28 2.28 0 0 0 2.257 1.909H22.38c1.136 0 2.09-.804 2.273-1.91z"/>
            </g>
            <path fill="#FFBA98" d="M26.94 20.97s-.455 1.803-2.258 2.53c0 0 .56 4.44 2.909 4.44 2.348 0 2.94-3.182 2.985-4.53 0-.016-2.803-.531-3.637-2.44z"/>
        </g>
        <g fill="#041939" fill-rule="nonzero">
            <path d="M62.82 88.59c.97-.666 1.803-1.15 1.894-1.378.015-.03.015-.045.03-.076.455.061.91.091 1.349.152.12.47.363 1.348.166 1.56-.197.228-.97.243-1.485.167-.56-.09-.681.227-1.242.288-.364.045-2.167.045-2-.288.121-.212 1.273-.424 1.288-.424z"/>
            <path d="M71.123 59.47l-5.03 13.44s-.607 6.923-.97 11.105v.06c-.015.031-.03.046-.046.077-.106.575-.151 1.515-.106 1.636-.015.03-.03.045-.03.076-.121.272-.227.53-.045.878 0 .016.015.046 0 .061l-.228.333 2.212.712s0-.015.016-.045c.09-.182.393-.606.257-1.015-.136-.136 1.349-5.924 1.349-5.924.394-1.728.484-2.712.515-4l.682-2.076L77.214 62.5l-6.091-3.03z"/>
        </g>
        <g fill-rule="nonzero">
            <path fill="#700027" d="M69.956 65.91H78.396c.151 0 .272.105.272.257 0 .136-.121.257-.272.257h-3.682v7.97h-.53v-7.97H69.97c-.151 0-.272-.106-.272-.257-.016-.137.106-.258.257-.258zM73.896 74.591h1.106v1h-1.106zM71.199 83.394h2.697v-7.758h1.106v7.758h2.697c.12 0 .212.09.212.212 0 .121-.091.212-.212.212h-2.697v4.197h-1.106v-4.197h-2.697a.207.207 0 0 1-.213-.212c0-.121.107-.212.213-.212z"/>
            <path fill="#E0004D" d="M74.986 88.242l3.516.713H70.38l3.516-.713zM69.653 65.91h9.152c.409 0 .742-.334.742-.743V63.59a.744.744 0 0 0-.742-.743h-9.152a.744.744 0 0 0-.742.743v1.576c0 .409.333.742.742.742z"/>
            <path fill="#A8003A" d="M69.729 62.848h8.879c-.773 1.091-1.758 2.091-2.682 3.061h-6.197a.815.815 0 0 1-.818-.818v-1.424c0-.455.363-.819.818-.819z"/>
        </g>
        <path fill="#102E57" fill-rule="nonzero" d="M72.744 82.152c-.076-.137.03-.213.136-.273l-.03-.03a.209.209 0 0 1 .03-.273c.44-.455.697-1.879.546-2.121-.015-.03-.03-.046-.046-.076.334-.379.667-.773 1-1.152.5.182 1.319.38 1.394.697.076.334-.045 1.015-.212 1.288a36.66 36.66 0 0 0-.97 1.667c-.196.363-.272.985-.56 1.227-.258.227-2 .455-2.303.167-.44-.41.833-.94 1.015-1.121z"/>
        <path fill="#B8C7DE" fill-rule="nonzero" d="M74.29 79.273c-.197.151-.5.06-.728.045-.045 0-.09 0-.136-.015.318-.364.636-.742.97-1.106h.015c.045.348.166.833-.122 1.076z"/>
        <g fill-rule="nonzero">
            <path fill="#ED785F" d="M71.108 52.47l-7.273 1.56.03.925 7.758.515z"/>
            <path fill="#C7D7ED" d="M71.108 52.47l-6.91 1.394.091 1.303 7.334.303z"/>
            <path fill="#ED785F" d="M62.85 53.045c-.182-.151-.394-.303-.621-.257a.49.49 0 0 0-.333.288c-.061.136-.091.288-.122.44-.045.272 1.53 1.681 2.091 1.423.182-.075.106-.257.121-.454.061-.591-.681-1.046-1.136-1.44z"/>
            <path fill="#ED785F" d="M62.456 52.818c-.257-.227-1.182.152-1.379.424-.106.152-.015.53.152.622.151-.106 0-.273.045-.394.046-.122.167-.122.288-.152.334-.106.803.015.894-.5z"/>
            <path fill="#ED785F" d="M62.653 53.212c-.257-.227-1.182.152-1.379.424-.106.152-.015.53.152.622.151-.106 0-.273.045-.394.046-.122.167-.122.288-.152.334-.09.803.015.894-.5z"/>
            <path fill="#ED785F" d="M62.805 53.53c-.258-.227-1.182.152-1.38.425-.105.151-.014.53.152.62.152-.105 0-.272.046-.393.045-.121.166-.121.288-.152.333-.09.803.015.894-.5z"/>
            <path fill="#ED785F" d="M62.729 53.848c-.197-.166-.879.122-1.015.319-.076.12-.015.394.106.454.106-.076 0-.197.03-.288.03-.09.121-.09.212-.106.258-.075.606 0 .667-.379z"/>
            <path fill="#ED785F" d="M62.926 53.379c-.137.333-1.137-.212-1.394-.288-.197.273.485.515.636.636.167.137.197.425.394.546.182.12.379.106.576.06.09-.015.197-.06.288-.03"/>
        </g>
        <path fill="#002D74" fill-rule="nonzero" d="M71.123 59.47c.712-.728.712-1.106.545-2.152l7.015-.227c.5 2.045.88 3.894-.409 5.409-1.44 1.697-9.363 6.333-9.197 7.076.182.818.88 2.379 2.864 5.015.015.015 2.788 3.288 2.879 3.394-.41.53-1.227 1.773-1.637 2.303-.015-.015-.394-.5-.47-.56-.014-.016-1.711-1.5-1.727-1.516-2.575-2.076-6.212-6.879-7.212-8.06-.288-.334-.318-1.728-.03-2.076 2.47-2.97 6.606-7.803 7.379-8.606z"/>
        <path fill="#FFF" fill-rule="nonzero" d="M73.91 40.742c2.925 0 5.607 2.38 5.986 5.303l-.849 7.091c-.03.788.894 8.122.303 8.637l-2.409-1.197-.56-1.121-.5 1.106-3.41-.258-2.636.318c-.712 0 .621-3.818.545-4.515l.258-9.212c-.273-2.227 1.03-6.152 3.273-6.152z"/>
        <path fill="#4977BA" fill-rule="nonzero" d="M73.971 43.152c-.56.696-1.106 1.409-1.772 2-.106-.743.06-3.167.09-3.622.47-.485 1.016-.788 1.637-.788.424 0 .954.258 1.363.349-.09.273-.954 1.59-1.318 2.06z"/>
        <path fill="#C7D7ED" fill-rule="nonzero" d="M73.138 49.742c.697-1.136 1.636-2.606 1.667-3.97v-.045c1.303-.257 2.606-.44 3.939-.47 0 .122-.015.243-.03.35-.091.787-.273 1.56-.485 2.332-1.288 4.834-3.576 7.91-5.06 7.03-.773-.454-1.97-1.545-1.97-1.545l-.167-1.97c.848-.212 1.545-.818 2.106-1.712z"/>
        <g fill-rule="nonzero">
            <path fill="#FFBA98" d="M74.774 38.91l.5 2.18-2.954 1.531-.167-2.394z"/>
            <path fill="#ED785F" d="M73.29 41.318c-.334.273-.667.53-1 .803l-.137-1.909 2.621-1.318.015.09c-.151.97-.666 1.622-1.5 2.334z"/>
            <path fill="#000042" d="M69.002 33.53c.106-.682.712-1.106 1.378-1.151.273-.015.561.015.834.106.075.03.682.303.62.379.743-.773 2.35-.485 2.47.757 0 0 .289-.015.319-.015.53 0 1.076.379 1.333.833.258.47.243.94-.045 1.38-.06.09-.212.287-.288.302.03.06-.015.197-.03.258-.03.151-.682 2.166-.697 2.53-.182.015-.319.03-.38.046.016-.288-.211-.773-.363-1-.045-.061-.076-.122-.106-.182 0-.03 0-.06-.015-.106-.076-.349-.015-.773-.258-1.06-.09-.092-.242-.122-.318-.213-.06-.091 0-1.136-.151-1.364-.152-.242-2.364-.288-2.561-.106-.197.182-.182 1.803-.197 1.788-.045-.045-.03-.136-.045-.212-.061-.394-.243-.758-.288-1.152-.03-.272-.303-.287-.5-.378-.515-.258-.788-.88-.712-1.44z"/>
            <path fill="#FFBA98" d="M70.441 39.879l.03-5.227h3.167l.106 1.303.318.363.243 1.455h.288l.015-.334a.534.534 0 0 1 .53-.515h.015c.273.015.5.258.5.53v.364c0 .288-.242.5-.53.515a.324.324 0 0 0-.318.334v.485c0 .742-4.122 2.348-4.349 1.015a.595.595 0 0 1-.015-.288z"/>
            <path fill="#263238" d="M70.093 36.697v.333c0 .41.303.728.666.728h.106c.41 0 .758-.364.758-.819v-.151h.121v.242c0 .41.333.728.727.728h.122a.828.828 0 0 0 .833-.819v-.151h1.333c.303 0 .606.106.849.318l.045.046c.046.03.106.03.136-.016.03-.045.03-.106-.015-.136l-.045-.045a1.538 1.538 0 0 0-.97-.364h-1.333a.423.423 0 0 0-.41-.318h-.848a.423.423 0 0 0-.409.318h-.151c-.046-.182-.197-.318-.38-.318h-.772c-.182 0-.363.182-.363.424zm1.863 0c0-.121.106-.227.227-.227h.849c.121 0 .227.106.227.227v.242a.64.64 0 0 1-.651.622h-.122a.527.527 0 0 1-.53-.53v-.334zm-1.667 0c0-.121.091-.227.197-.227h.773c.106 0 .197.106.197.227v.242c-.015.349-.257.622-.576.622h-.106c-.257 0-.47-.243-.47-.53v-.334h-.015z"/>
        </g>
        <g fill="#212121" fill-rule="nonzero">
            <path d="M66.235 43.794l.044-.347.255.04-.044.346zM63.678 43.403l.044-.347 2.505.387-.044.346zM63.562 43.029h.06l.061.016-.045.35-.06-.016c-.016 0-.031 0-.061-.017l.045-.333zM63.456 43.345c-.182-.05-.47-.166-.47-.233.016-.067.319-.083.516-.083l-.046.316z"/>
        </g>
        <g fill="#FFBA98" fill-rule="nonzero">
            <path d="M71.426 49.44l-5.455-3.985-.682.636 4.804 6.121z"/>
            <path d="M66.032 44.076c0-.228-.046-.5-.227-.637-.122-.09-.288-.09-.44-.06a1.706 1.706 0 0 0-.409.197c-.242.151-.227 2.257.349 2.515.181.076.257-.091.409-.212.47-.349.333-1.197.318-1.803z"/>
            <path d="M65.941 43.621c-.015-.348-.91-.773-1.227-.742-.182.015-.41.333-.364.53.182.046.197-.182.333-.227.106-.046.197.045.303.106.273.197.516.606.955.333z"/>
            <path d="M65.774 44.045c-.015-.348-.909-.772-1.227-.742-.182.015-.409.333-.364.53.182.046.197-.181.334-.227.106-.045.197.046.303.106.273.182.515.606.954.333z"/>
            <path d="M65.638 44.364c-.015-.349-.91-.773-1.227-.743-.182.015-.41.334-.364.53.182.046.197-.181.333-.227.106-.045.197.046.303.106.273.182.516.606.955.334z"/>
            <path d="M65.35 44.515c0-.257-.667-.576-.909-.545-.136.015-.303.242-.273.394.137.03.152-.137.243-.167.075-.03.151.03.227.076.212.136.394.454.712.242z"/>
        </g>
        <path stroke="#E4DDD3" stroke-linecap="round" stroke-linejoin="round" stroke-width=".5" d="M72.199 45.152s.015 8.757-.53 12.181"/>
        <path fill="#FFF" fill-rule="nonzero" d="M66.229 45.576c.167.09 5.515 4 5.682 3.954.136-.045.242-.151.378-.182.137-.045.713-1.62.773-1.742.046-.09.152-.151.212-.242s.06-.212.076-.319c.03-.333.212-.636.379-.939.333-.621.545-1.303.742-1.97 0-.015.015-.045.015-.06.5-1.667 2.637-2.212 3.819-.94.197.212.363.47.47.788.424 1.212-.167 2.515-.682 3.697a.72.72 0 0 0-.091.394c.03.197-.016.288-.046.485-.045.318-.318.44-.454.727-.061.137-.016.303-.061.44-.03.12-.121.212-.197.303a7.915 7.915 0 0 0-1.258 1.97c-.181.408-1.181 1.772-1.47 2.12-.287.35-.757.607-1.196.485-.637-.166-1.076-1.045-1.712-.863-.061.015-.122.045-.182.045-.273.015-.364-.363-.364-.636a.405.405 0 0 1-.454-.288c-.03-.06-.061-.136-.106-.182-.122-.151-.288-.257-.41-.394-.03-.03-4.545-5.545-4.56-5.575l.697-1.076z"/>
        <path stroke="#E4DDD3" stroke-linecap="round" stroke-linejoin="round" stroke-width=".5" d="M75.517 41.121s.136 1.394.121 1.818c-.015.425-.44.682-.849.682-.742 0-.575.712-.606 1.41-.03.696-1.136.454-1.62.439M72.153 41.667s-.712.924-.697 1.363c.015.425.167.712.318.712.258 0-.288.364-.272 1.076.015.697.166.667.333.652"/>
    </g>
</svg>
